<svg width="119" height="112" viewBox="0 0 119 112" fill="none" xmlns="http://www.w3.org/2000/svg">
<path d="M58.6733 63.6667H45.4168V72.8329H58.6733V63.6667Z" fill="white"/>
<path d="M42.0838 47.0005H32.9177V60.333H42.0838V47.0005Z" fill="white"/>
<path d="M42.0838 76.166H32.9177V89.4985H42.0838V76.166Z" fill="white"/>
<path d="M92.5947 12H7.40831C5.4435 12 3.55917 12.7805 2.16984 14.1698C0.780516 15.5592 0 17.4435 0 19.4083L0 104.592C0 105.565 0.191622 106.528 0.563924 107.427C0.936226 108.326 1.48192 109.142 2.16984 109.83C2.85777 110.518 3.67445 111.064 4.57327 111.436C5.47209 111.808 6.43544 112 7.40831 112H92.5947C93.5675 112 94.5307 111.808 95.4293 111.436C96.3279 111.064 97.1444 110.518 97.8321 109.83C98.5198 109.142 99.0652 108.325 99.4372 107.426C99.8091 106.528 100 105.564 100 104.592V19.4083C100 17.444 99.2199 15.5602 97.8312 14.1709C96.4426 12.7817 94.559 12.0008 92.5947 12ZM74.5849 45.3343C74.5841 45.7761 74.4082 46.1995 74.0959 46.5119C73.7835 46.8243 73.3601 47.0001 72.9183 47.0009H45.4169V60.3334H60.34C60.782 60.3334 61.2059 60.509 61.5184 60.8216C61.831 61.1341 62.0066 61.558 62.0066 62V74.4992C62.0066 74.9412 61.831 75.3651 61.5184 75.6777C61.2059 75.9902 60.782 76.1658 60.34 76.1658H45.4169V91.1679C45.4169 91.6099 45.2414 92.0338 44.9288 92.3464C44.6163 92.6589 44.1924 92.8345 43.7504 92.8345H31.2511C30.8091 92.8345 30.3852 92.6589 30.0727 92.3464C29.7602 92.0338 29.5846 91.6099 29.5846 91.1679V74.4992C29.5846 74.0572 29.7602 73.6333 30.0727 73.3208C30.3852 73.0083 30.8091 72.8327 31.2511 72.8327H42.0838V63.6666H31.2511C30.8091 63.6666 30.3852 63.491 30.0727 63.1784C29.7602 62.8659 29.5846 62.442 29.5846 62V45.3343C29.5846 44.8923 29.7602 44.4684 30.0727 44.1559C30.3852 43.8434 30.8091 43.6678 31.2511 43.6678H42.0838V32.8321C42.083 32.6127 42.1255 32.3953 42.2089 32.1924C42.2923 31.9895 42.415 31.8051 42.5698 31.6497C42.7246 31.4943 42.9086 31.371 43.1112 31.2869C43.3138 31.2027 43.531 31.1594 43.7504 31.1594H72.9183C73.3601 31.1602 73.7835 31.3361 74.0959 31.6484C74.4082 31.9608 74.5841 32.3842 74.5849 32.826V45.3343Z" fill="white"/>
<path d="M71.2516 34.4985H45.4168V43.6646H71.2516V34.4985Z" fill="white"/>
<path d="M88.3201 35.8908L88.3201 35.8908L115.926 8.50661C115.926 8.5066 115.926 8.50659 115.926 8.50658C117.234 7.20938 117.242 5.0975 115.945 3.78964C115.945 3.7896 115.945 3.78955 115.945 3.78951L114.652 2.48644L113.587 3.54278L114.652 2.48643C113.355 1.17848 111.243 1.17031 109.935 2.46743L109.935 2.46746L86.0006 26.21L76.5066 16.6394C75.2092 15.3314 73.0973 15.3233 71.7896 16.6204C71.7896 16.6204 71.7896 16.6204 71.7896 16.6204L70.4864 17.913L70.4864 17.913C69.1785 19.2104 69.1703 21.3223 70.4674 22.63L70.4675 22.6301L83.6031 35.8718C83.6031 35.8718 83.6031 35.8718 83.6031 35.8718C84.9005 37.1798 87.0124 37.1879 88.3201 35.8908Z" fill="#0ED984" stroke="white" stroke-width="3"/>
</svg>
